<svg version="1.1" viewBox="0.0 0.0 960.0 540.0" fill="none" stroke="none" stroke-linecap="square" stroke-miterlimit="10" xmlns:xlink="http://www.w3.org/1999/xlink" xmlns="http://www.w3.org/2000/svg"><clipPath id="g102b6da4944_0_12.0"><path d="m0 0l960.0 0l0 540.0l-960.0 0l0 -540.0z" clip-rule="nonzero"/></clipPath><g clip-path="url(#g102b6da4944_0_12.0)"><path fill="#eeeeee" d="m0 0l960.0 0l0 540.0l-960.0 0z" fill-rule="evenodd"/><path fill="#000000" fill-opacity="0.0" d="m32.72441 46.721786l894.55115 0l0 60.125984l-894.55115 0z" fill-rule="evenodd"/><path fill="#303030" d="m56.63066 81.82153q0 -1.5625 -1.109375 -2.421875q-1.09375 -0.859375 -3.984375 -1.71875q-2.890625 -0.875 -4.59375 -1.9375q-3.265625 -2.046875 -3.265625 -5.34375q0 -2.890625 2.34375 -4.765625q2.359375 -1.875 6.125 -1.875q2.484375 0 4.4375 0.921875q1.953125 0.921875 3.0625 2.625q1.125 1.6875 1.125 3.765625l-4.140625 0q0 -1.875 -1.171875 -2.921875q-1.171875 -1.0625 -3.34375 -1.0625q-2.046875 0 -3.171875 0.875q-1.109375 0.859375 -1.109375 2.421875q0 1.3125 1.203125 2.1875q1.21875 0.875 4.0 1.703125q2.796875 0.828125 4.484375 1.890625q1.6875 1.046875 2.46875 2.421875q0.796875 1.375 0.796875 3.203125q0 2.984375 -2.296875 4.75q-2.28125 1.765625 -6.203125 1.765625q-2.59375 0 -4.765625 -0.953125q-2.171875 -0.96875 -3.375 -2.65625q-1.203125 -1.6875 -1.203125 -3.9375l4.140625 0q0 2.03125 1.34375 3.15625q1.34375 1.109375 3.859375 1.109375q2.171875 0 3.25 -0.875q1.09375 -0.875 1.09375 -2.328125zm13.618103 0.453125l3.609375 -12.046875l4.25 0l-7.0625 20.4375q-1.609375 4.484375 -5.5 4.484375q-0.875 0 -1.921875 -0.296875l0 -3.078125l0.75 0.046875q1.515625 0 2.265625 -0.5625q0.765625 -0.546875 1.21875 -1.84375l0.578125 -1.515625l-6.234375 -17.671875l4.296875 0l3.75 12.046875zm20.088364 0.875q0 -1.0625 -0.875 -1.609375q-0.875 -0.5625 -2.90625 -0.984375q-2.03125 -0.4375 -3.390625 -1.09375q-2.984375 -1.4375 -2.984375 -4.1875q0 -2.296875 1.921875 -3.828125q1.9375 -1.546875 4.921875 -1.546875q3.1875 0 5.140625 1.578125q1.96875 1.578125 1.96875 4.078125l-3.984375 0q0 -1.140625 -0.859375 -1.90625q-0.84375 -0.765625 -2.265625 -0.765625q-1.3125 0 -2.140625 0.609375q-0.828125 0.609375 -0.828125 1.625q0 0.921875 0.765625 1.4375q0.78125 0.5 3.125 1.015625q2.34375 0.515625 3.671875 1.234375q1.34375 0.703125 1.984375 1.703125q0.65625 1.0 0.65625 2.4375q0 2.390625 -1.984375 3.875q-1.984375 1.484375 -5.203125 1.484375q-2.171875 0 -3.875 -0.78125q-1.703125 -0.796875 -2.65625 -2.171875q-0.953125 -1.375 -0.953125 -2.96875l3.859375 0q0.09375 1.40625 1.078125 2.171875q0.984375 0.765625 2.609375 0.765625q1.5625 0 2.375 -0.59375q0.828125 -0.609375 0.828125 -1.578125zm12.385056 -17.234375l0 4.3125l3.140625 0l0 2.953125l-3.140625 0l0 9.90625q0 1.015625 0.40625 1.46875q0.40625 0.453125 1.4375 0.453125q0.6875 0 1.390625 -0.171875l0 3.09375q-1.359375 0.375 -2.625 0.375q-4.59375 0 -4.59375 -5.0625l0 -10.0625l-2.921875 0l0 -2.953125l2.921875 0l0 -4.3125l3.984375 0zm13.998703 22.390625q-3.796875 0 -6.15625 -2.375q-2.34375 -2.390625 -2.34375 -6.375l0 -0.484375q0 -2.65625 1.015625 -4.75q1.03125 -2.09375 2.890625 -3.25q1.859375 -1.171875 4.140625 -1.171875q3.625 0 5.59375 2.3125q1.984375 2.3125 1.984375 6.546875l0 1.609375l-11.609375 0q0.1875 2.203125 1.46875 3.484375q1.296875 1.265625 3.25 1.265625q2.734375 0 4.453125 -2.203125l2.15625 2.046875q-1.078125 1.59375 -2.859375 2.46875q-1.765625 0.875 -3.984375 0.875zm-0.484375 -15.203125q-1.625 0 -2.640625 1.15625q-1.015625 1.140625 -1.28125 3.1875l7.59375 0l0 -0.296875q-0.140625 -2.0 -1.078125 -3.015625q-0.921875 -1.03125 -2.59375 -1.03125zm14.44899 -2.875l0.109375 1.859375q1.875 -2.1875 5.109375 -2.1875q3.5625 0 4.875 2.71875q1.9375 -2.71875 5.453125 -2.71875q2.9375 0 4.359375 1.625q1.4375 1.625 1.484375 4.796875l0 11.65625l-4.0 0l0 -11.546875q0 -1.6875 -0.734375 -2.46875q-0.734375 -0.796875 -2.4375 -0.796875q-1.359375 0 -2.234375 0.734375q-0.859375 0.71875 -1.203125 1.90625l0.015625 12.171875l-3.984375 0l0 -11.671875q-0.078125 -3.140625 -3.1875 -3.140625q-2.40625 0 -3.40625 1.953125l0 12.859375l-3.984375 0l0 -17.75l3.765625 0z" fill-rule="nonzero"/><path fill="#000000" fill-opacity="0.0" d="m409.8714 155.8084l0 0c0 -40.295036 32.66559 -72.960625 72.96063 -72.960625l0 0c19.350342 0 37.908203 7.6868973 51.590942 21.369675c13.6828 13.68277 21.36969 32.240593 21.36969 51.59095l0 0c0 40.295044 -32.66559 72.96063 -72.96063 72.96063l0 0c-40.295044 0 -72.96063 -32.66559 -72.96063 -72.96063z" fill-rule="evenodd"/><path stroke="#303030" stroke-width="1.0" stroke-linejoin="round" stroke-linecap="butt" d="m409.8714 155.8084l0 0c0 -40.295036 32.66559 -72.960625 72.96063 -72.960625l0 0c19.350342 0 37.908203 7.6868973 51.590942 21.369675c13.6828 13.68277 21.36969 32.240593 21.36969 51.59095l0 0c0 40.295044 -32.66559 72.96063 -72.96063 72.96063l0 0c-40.295044 0 -72.96063 -32.66559 -72.96063 -72.96063z" fill-rule="evenodd"/><path fill="#000000" d="m465.33203 130.19965l-4.765625 0l-1.078125 2.96875l-1.546875 0l4.34375 -11.375l1.3125 0l4.359375 11.375l-1.546875 0l-1.078125 -2.96875zm-4.3125 -1.234375l3.859375 0l-1.9375 -5.328125l-1.921875 5.328125zm12.328125 -2.953125q-0.328125 -0.0625 -0.71875 -0.0625q-1.421875 0 -1.921875 1.21875l0 6.0l-1.453125 0l0 -8.453125l1.40625 0l0.03125 0.96875q0.703125 -1.125 2.015625 -1.125q0.421875 0 0.640625 0.109375l0 1.34375zm3.6796875 -3.34375l0 2.046875l1.578125 0l0 1.109375l-1.578125 0l0 5.25q0 0.5 0.203125 0.765625q0.21875 0.25 0.71875 0.25q0.25 0 0.6875 -0.09375l0 1.171875q-0.5625 0.15625 -1.109375 0.15625q-0.96875 0 -1.46875 -0.578125q-0.484375 -0.59375 -0.484375 -1.671875l0 -5.25l-1.53125 0l0 -1.109375l1.53125 0l0 -2.046875l1.453125 0zm4.8359375 10.5l-1.453125 0l0 -8.453125l1.453125 0l0 8.453125zm-1.5625 -10.703125q0 -0.34375 0.203125 -0.578125q0.21875 -0.25 0.640625 -0.25q0.421875 0 0.640625 0.25q0.21875 0.234375 0.21875 0.59375q0 0.34375 -0.21875 0.578125q-0.21875 0.234375 -0.640625 0.234375q-0.421875 0 -0.640625 -0.234375q-0.203125 -0.234375 -0.203125 -0.59375zm8.7890625 8.453125q0 -0.578125 -0.4375 -0.90625q-0.4375 -0.328125 -1.546875 -0.5625q-1.09375 -0.234375 -1.734375 -0.5625q-0.640625 -0.328125 -0.953125 -0.78125q-0.3125 -0.453125 -0.3125 -1.078125q0 -1.03125 0.875 -1.75q0.890625 -0.71875 2.25 -0.71875q1.4375 0 2.328125 0.75q0.90625 0.734375 0.90625 1.890625l-1.453125 0q0 -0.59375 -0.515625 -1.015625q-0.5 -0.4375 -1.265625 -0.4375q-0.78125 0 -1.234375 0.34375q-0.4375 0.34375 -0.4375 0.890625q0 0.53125 0.40625 0.796875q0.421875 0.265625 1.5 0.515625q1.078125 0.234375 1.75 0.578125q0.671875 0.328125 1.0 0.796875q0.328125 0.46875 0.328125 1.15625q0 1.125 -0.90625 1.8125q-0.90625 0.6875 -2.359375 0.6875q-1.015625 0 -1.796875 -0.359375q-0.78125 -0.359375 -1.21875 -1.0q-0.4375 -0.65625 -0.4375 -1.40625l1.4375 0q0.046875 0.734375 0.578125 1.15625q0.546875 0.421875 1.4375 0.421875q0.828125 0 1.3125 -0.328125q0.5 -0.328125 0.5 -0.890625zm5.296875 -8.25l0 2.046875l1.578125 0l0 1.109375l-1.578125 0l0 5.25q0 0.5 0.203125 0.765625q0.21875 0.25 0.71875 0.25q0.25 0 0.6875 -0.09375l0 1.171875q-0.5625 0.15625 -1.109375 0.15625q-0.96875 0 -1.46875 -0.578125q-0.484375 -0.59375 -0.484375 -1.671875l0 -5.25l-1.53125 0l0 -1.109375l1.53125 0l0 -2.046875l1.453125 0zm8.1796875 8.25q0 -0.578125 -0.4375 -0.90625q-0.4375 -0.328125 -1.546875 -0.5625q-1.09375 -0.234375 -1.734375 -0.5625q-0.640625 -0.328125 -0.953125 -0.78125q-0.3125 -0.453125 -0.3125 -1.078125q0 -1.03125 0.875 -1.75q0.890625 -0.71875 2.25 -0.71875q1.4375 0 2.328125 0.75q0.90625 0.734375 0.90625 1.890625l-1.453125 0q0 -0.59375 -0.515625 -1.015625q-0.5 -0.4375 -1.265625 -0.4375q-0.78125 0 -1.234375 0.34375q-0.4375 0.34375 -0.4375 0.890625q0 0.53125 0.40625 0.796875q0.421875 0.265625 1.5 0.515625q1.078125 0.234375 1.75 0.578125q0.671875 0.328125 1.0 0.796875q0.328125 0.46875 0.328125 1.15625q0 1.125 -0.90625 1.8125q-0.90625 0.6875 -2.359375 0.6875q-1.015625 0 -1.796875 -0.359375q-0.78125 -0.359375 -1.21875 -1.0q-0.4375 -0.65625 -0.4375 -1.40625l1.4375 0q0.046875 0.734375 0.578125 1.15625q0.546875 0.421875 1.4375 0.421875q0.828125 0 1.3125 -0.328125q0.5 -0.328125 0.5 -0.890625zm3.28125 4.515625l-0.8125 -0.5625q0.734375 -1.015625 0.765625 -2.109375l0 -1.3125l1.40625 0l0 1.140625q0 0.796875 -0.390625 1.578125q-0.375 0.796875 -0.96875 1.265625z" fill-rule="nonzero"/><path fill="#000000" d="m448.04688 140.7934l3.71875 9.28125l3.71875 -9.28125l1.9375 0l0 11.375l-1.5 0l0 -4.4375l0.140625 -4.78125l-3.734375 9.21875l-1.140625 0l-3.734375 -9.1875l0.15625 4.75l0 4.4375l-1.5 0l0 -11.375l1.9375 0zm17.015625 10.53125q-0.84375 1.0 -2.46875 1.0q-1.359375 0 -2.0625 -0.78125q-0.703125 -0.796875 -0.71875 -2.328125l0 -5.5l1.453125 0l0 5.453125q0 1.921875 1.5625 1.921875q1.65625 0 2.203125 -1.234375l0 -6.140625l1.4375 0l0 8.453125l-1.375 0l-0.03125 -0.84375zm8.5234375 -1.40625q0 -0.578125 -0.4375 -0.90625q-0.4375 -0.328125 -1.546875 -0.5625q-1.09375 -0.234375 -1.734375 -0.5625q-0.640625 -0.328125 -0.953125 -0.78125q-0.3125 -0.453125 -0.3125 -1.078125q0 -1.03125 0.875 -1.75q0.890625 -0.71875 2.25 -0.71875q1.4375 0 2.328125 0.75q0.90625 0.734375 0.90625 1.890625l-1.453125 0q0 -0.59375 -0.515625 -1.015625q-0.5 -0.4375 -1.265625 -0.4375q-0.78125 0 -1.234375 0.34375q-0.4375 0.34375 -0.4375 0.890625q0 0.53125 0.40625 0.796875q0.421875 0.265625 1.5 0.515625q1.078125 0.234375 1.75 0.578125q0.671875 0.328125 1.0 0.796875q0.328125 0.46875 0.328125 1.15625q0 1.125 -0.90625 1.8125q-0.90625 0.6875 -2.359375 0.6875q-1.015625 0 -1.796875 -0.359375q-0.78125 -0.359375 -1.21875 -1.0q-0.4375 -0.65625 -0.4375 -1.40625l1.4375 0q0.046875 0.734375 0.578125 1.15625q0.546875 0.421875 1.4375 0.421875q0.828125 0 1.3125 -0.328125q0.5 -0.328125 0.5 -0.890625zm4.90625 2.25l-1.453125 0l0 -8.453125l1.453125 0l0 8.453125zm-1.5625 -10.703125q0 -0.34375 0.203125 -0.578125q0.21875 -0.25 0.640625 -0.25q0.421875 0 0.640625 0.25q0.21875 0.234375 0.21875 0.59375q0 0.34375 -0.21875 0.578125q-0.21875 0.234375 -0.640625 0.234375q-0.421875 0 -0.640625 -0.234375q-0.203125 -0.234375 -0.203125 -0.59375zm7.2578125 9.671875q0.78125 0 1.359375 -0.46875q0.578125 -0.46875 0.640625 -1.171875l1.359375 0q-0.03125 0.734375 -0.5 1.390625q-0.453125 0.65625 -1.234375 1.046875q-0.765625 0.390625 -1.625 0.390625q-1.71875 0 -2.75 -1.15625q-1.015625 -1.15625 -1.015625 -3.15625l0 -0.234375q0 -1.234375 0.453125 -2.1875q0.453125 -0.96875 1.296875 -1.5q0.859375 -0.53125 2.015625 -0.53125q1.421875 0 2.359375 0.859375q0.9375 0.84375 1.0 2.203125l-1.359375 0q-0.0625 -0.828125 -0.625 -1.34375q-0.5625 -0.53125 -1.375 -0.53125q-1.109375 0 -1.71875 0.796875q-0.59375 0.78125 -0.59375 2.28125l0 0.28125q0 1.453125 0.59375 2.25q0.609375 0.78125 1.71875 0.78125zm6.5625 1.03125l-1.453125 0l0 -8.453125l1.453125 0l0 8.453125zm-1.5625 -10.703125q0 -0.34375 0.203125 -0.578125q0.21875 -0.25 0.640625 -0.25q0.421875 0 0.640625 0.25q0.21875 0.234375 0.21875 0.59375q0 0.34375 -0.21875 0.578125q-0.21875 0.234375 -0.640625 0.234375q-0.421875 0 -0.640625 -0.234375q-0.203125 -0.234375 -0.203125 -0.59375zm9.0859375 10.703125q-0.125 -0.25 -0.203125 -0.890625q-1.0 1.046875 -2.40625 1.046875q-1.25 0 -2.046875 -0.703125q-0.796875 -0.71875 -0.796875 -1.796875q0 -1.328125 1.0 -2.046875q1.0 -0.734375 2.828125 -0.734375l1.40625 0l0 -0.671875q0 -0.75 -0.453125 -1.203125q-0.453125 -0.453125 -1.34375 -0.453125q-0.765625 0 -1.296875 0.390625q-0.515625 0.390625 -0.515625 0.953125l-1.453125 0q0 -0.640625 0.4375 -1.21875q0.453125 -0.59375 1.21875 -0.9375q0.78125 -0.34375 1.703125 -0.34375q1.453125 0 2.28125 0.734375q0.828125 0.71875 0.859375 2.0l0 3.890625q0 1.171875 0.296875 1.859375l0 0.125l-1.515625 0zm-2.390625 -1.109375q0.671875 0 1.28125 -0.34375q0.609375 -0.359375 0.890625 -0.921875l0 -1.734375l-1.140625 0q-2.65625 0 -2.65625 1.5625q0 0.671875 0.453125 1.0625q0.453125 0.375 1.171875 0.375zm7.25 -7.34375l0.046875 1.0625q0.96875 -1.21875 2.53125 -1.21875q2.671875 0 2.703125 3.015625l0 5.59375l-1.453125 0l0 -5.59375q0 -0.921875 -0.421875 -1.359375q-0.40625 -0.4375 -1.265625 -0.4375q-0.703125 0 -1.234375 0.375q-0.53125 0.375 -0.828125 0.984375l0 6.03125l-1.453125 0l0 -8.453125l1.375 0zm12.375 6.203125q0 -0.578125 -0.4375 -0.90625q-0.4375 -0.328125 -1.546875 -0.5625q-1.09375 -0.234375 -1.734375 -0.5625q-0.640625 -0.328125 -0.953125 -0.78125q-0.3125 -0.453125 -0.3125 -1.078125q0 -1.03125 0.875 -1.75q0.890625 -0.71875 2.25 -0.71875q1.4375 0 2.328125 0.75q0.90625 0.734375 0.90625 1.890625l-1.453125 0q0 -0.59375 -0.515625 -1.015625q-0.5 -0.4375 -1.265625 -0.4375q-0.78125 0 -1.234375 0.34375q-0.4375 0.34375 -0.4375 0.890625q0 0.53125 0.40625 0.796875q0.421875 0.265625 1.5 0.515625q1.078125 0.234375 1.75 0.578125q0.671875 0.328125 1.0 0.796875q0.328125 0.46875 0.328125 1.15625q0 1.125 -0.90625 1.8125q-0.90625 0.6875 -2.359375 0.6875q-1.015625 0 -1.796875 -0.359375q-0.78125 -0.359375 -1.21875 -1.0q-0.4375 -0.65625 -0.4375 -1.40625l1.4375 0q0.046875 0.734375 0.578125 1.15625q0.546875 0.421875 1.4375 0.421875q0.828125 0 1.3125 -0.328125q0.5 -0.328125 0.5 -0.890625zm3.28125 4.515625l-0.8125 -0.5625q0.734375 -1.015625 0.765625 -2.109375l0 -1.3125l1.40625 0l0 1.140625q0 0.796875 -0.390625 1.578125q-0.375 0.796875 -0.96875 1.265625z" fill-rule="nonzero"/><path fill="#000000" d="m443.03125 171.1684l0 -11.375l3.203125 0q1.484375 0 2.625 0.65625q1.140625 0.65625 1.765625 1.875q0.625 1.203125 0.625 2.765625l0 0.734375q0 1.609375 -0.625 2.828125q-0.609375 1.203125 -1.765625 1.859375q-1.15625 0.640625 -2.6875 0.65625l-3.140625 0zm1.5 -10.140625l0 8.90625l1.578125 0q1.734375 0 2.6875 -1.078125q0.96875 -1.078125 0.96875 -3.0625l0 -0.671875q0 -1.9375 -0.90625 -3.0q-0.90625 -1.078125 -2.578125 -1.09375l-1.75 0zm12.2734375 10.296875q-1.71875 0 -2.796875 -1.125q-1.078125 -1.140625 -1.078125 -3.03125l0 -0.265625q0 -1.25 0.46875 -2.234375q0.484375 -1.0 1.34375 -1.546875q0.875 -0.5625 1.875 -0.5625q1.65625 0 2.5625 1.09375q0.921875 1.078125 0.921875 3.09375l0 0.609375l-5.734375 0q0.03125 1.25 0.734375 2.015625q0.703125 0.765625 1.78125 0.765625q0.765625 0 1.296875 -0.3125q0.53125 -0.3125 0.921875 -0.828125l0.890625 0.6875q-1.0625 1.640625 -3.1875 1.640625zm-0.1875 -7.578125q-0.875 0 -1.46875 0.640625q-0.59375 0.625 -0.734375 1.78125l4.234375 0l0 -0.109375q-0.0625 -1.109375 -0.59375 -1.703125q-0.53125 -0.609375 -1.4375 -0.609375zm7.84375 5.453125l2.09375 -6.484375l1.46875 0l-3.03125 8.453125l-1.09375 0l-3.0625 -8.453125l1.46875 0l2.15625 6.484375zm8.3671875 2.125q-1.71875 0 -2.796875 -1.125q-1.078125 -1.140625 -1.078125 -3.03125l0 -0.265625q0 -1.25 0.46875 -2.234375q0.484375 -1.0 1.34375 -1.546875q0.875 -0.5625 1.875 -0.5625q1.65625 0 2.5625 1.09375q0.921875 1.078125 0.921875 3.09375l0 0.609375l-5.734375 0q0.03125 1.25 0.734375 2.015625q0.703125 0.765625 1.78125 0.765625q0.765625 0 1.296875 -0.3125q0.53125 -0.3125 0.921875 -0.828125l0.890625 0.6875q-1.0625 1.640625 -3.1875 1.640625zm-0.1875 -7.578125q-0.875 0 -1.46875 0.640625q-0.59375 0.625 -0.734375 1.78125l4.234375 0l0 -0.109375q-0.0625 -1.109375 -0.59375 -1.703125q-0.53125 -0.609375 -1.4375 -0.609375zm6.7265625 7.421875l-1.453125 0l0 -12.0l1.453125 0l0 12.0zm1.9296875 -4.3125q0 -1.234375 0.484375 -2.21875q0.484375 -1.0 1.359375 -1.53125q0.875 -0.546875 1.984375 -0.546875q1.734375 0 2.796875 1.203125q1.0625 1.1875 1.0625 3.171875l0 0.09375q0 1.234375 -0.46875 2.21875q-0.46875 0.984375 -1.359375 1.53125q-0.875 0.546875 -2.015625 0.546875q-1.71875 0 -2.78125 -1.1875q-1.0625 -1.203125 -1.0625 -3.171875l0 -0.109375zm1.453125 0.171875q0 1.40625 0.640625 2.265625q0.65625 0.84375 1.75 0.84375q1.109375 0 1.75 -0.859375q0.65625 -0.859375 0.65625 -2.421875q0 -1.390625 -0.671875 -2.25q-0.65625 -0.859375 -1.75 -0.859375q-1.0625 0 -1.71875 0.859375q-0.65625 0.84375 -0.65625 2.421875zm15.1875 0q0 1.9375 -0.890625 3.125q-0.875 1.171875 -2.375 1.171875q-1.546875 0 -2.421875 -0.984375l0 4.078125l-1.453125 0l0 -11.703125l1.328125 0l0.0625 0.9375q0.890625 -1.09375 2.453125 -1.09375q1.53125 0 2.40625 1.15625q0.890625 1.140625 0.890625 3.1875l0 0.125zm-1.4375 -0.15625q0 -1.4375 -0.609375 -2.265625q-0.609375 -0.828125 -1.671875 -0.828125q-1.3125 0 -1.96875 1.171875l0 4.03125q0.640625 1.15625 1.984375 1.15625q1.03125 0 1.640625 -0.8125q0.625 -0.828125 0.625 -2.453125zm6.7890625 4.453125q-1.71875 0 -2.796875 -1.125q-1.078125 -1.140625 -1.078125 -3.03125l0 -0.265625q0 -1.25 0.46875 -2.234375q0.484375 -1.0 1.34375 -1.546875q0.875 -0.5625 1.875 -0.5625q1.65625 0 2.5625 1.09375q0.921875 1.078125 0.921875 3.09375l0 0.609375l-5.734375 0q0.03125 1.25 0.734375 2.015625q0.703125 0.765625 1.78125 0.765625q0.765625 0 1.296875 -0.3125q0.53125 -0.3125 0.921875 -0.828125l0.890625 0.6875q-1.0625 1.640625 -3.1875 1.640625zm-0.1875 -7.578125q-0.875 0 -1.46875 0.640625q-0.59375 0.625 -0.734375 1.78125l4.234375 0l0 -0.109375q-0.0625 -1.109375 -0.59375 -1.703125q-0.53125 -0.609375 -1.4375 -0.609375zm9.2421875 0.265625q-0.328125 -0.0625 -0.71875 -0.0625q-1.421875 0 -1.921875 1.21875l0 6.0l-1.453125 0l0 -8.453125l1.40625 0l0.03125 0.96875q0.703125 -1.125 2.015625 -1.125q0.421875 0 0.640625 0.109375l0 1.34375zm6.2421875 4.90625q0 -0.578125 -0.4375 -0.90625q-0.4375 -0.328125 -1.546875 -0.5625q-1.09375 -0.234375 -1.734375 -0.5625q-0.640625 -0.328125 -0.953125 -0.78125q-0.3125 -0.453125 -0.3125 -1.078125q0 -1.03125 0.875 -1.75q0.890625 -0.71875 2.25 -0.71875q1.4375 0 2.328125 0.75q0.90625 0.734375 0.90625 1.890625l-1.453125 0q0 -0.59375 -0.515625 -1.015625q-0.5 -0.4375 -1.265625 -0.4375q-0.78125 0 -1.234375 0.34375q-0.4375 0.34375 -0.4375 0.890625q0 0.53125 0.40625 0.796875q0.421875 0.265625 1.5 0.515625q1.078125 0.234375 1.75 0.578125q0.671875 0.328125 1.0 0.796875q0.328125 0.46875 0.328125 1.15625q0 1.125 -0.90625 1.8125q-0.90625 0.6875 -2.359375 0.6875q-1.015625 0 -1.796875 -0.359375q-0.78125 -0.359375 -1.21875 -1.0q-0.4375 -0.65625 -0.4375 -1.40625l1.4375 0q0.046875 0.734375 0.578125 1.15625q0.546875 0.421875 1.4375 0.421875q0.828125 0 1.3125 -0.328125q0.5 -0.328125 0.5 -0.890625zm3.28125 4.515625l-0.8125 -0.5625q0.734375 -1.015625 0.765625 -2.109375l0 -1.3125l1.40625 0l0 1.140625q0 0.796875 -0.390625 1.578125q-0.375 0.796875 -0.96875 1.265625z" fill-rule="nonzero"/><path fill="#000000" d="m449.2422 185.71527l0 4.453125l-1.5 0l0 -11.375l4.1875 0q1.875 0 2.921875 0.953125q1.0625 0.953125 1.0625 2.515625q0 1.65625 -1.03125 2.5625q-1.03125 0.890625 -2.96875 0.890625l-2.671875 0zm0 -1.234375l2.6875 0q1.203125 0 1.84375 -0.5625q0.640625 -0.5625 0.640625 -1.640625q0 -1.015625 -0.640625 -1.625q-0.640625 -0.609375 -1.75 -0.625l-2.78125 0l0 4.453125zm12.453125 -1.46875q-0.328125 -0.0625 -0.71875 -0.0625q-1.421875 0 -1.921875 1.21875l0 6.0l-1.453125 0l0 -8.453125l1.40625 0l0.03125 0.96875q0.703125 -1.125 2.015625 -1.125q0.421875 0 0.640625 0.109375l0 1.34375zm0.7890625 2.84375q0 -1.234375 0.484375 -2.21875q0.484375 -1.0 1.359375 -1.53125q0.875 -0.546875 1.984375 -0.546875q1.734375 0 2.796875 1.203125q1.0625 1.1875 1.0625 3.171875l0 0.09375q0 1.234375 -0.46875 2.21875q-0.46875 0.984375 -1.359375 1.53125q-0.875 0.546875 -2.015625 0.546875q-1.71875 0 -2.78125 -1.1875q-1.0625 -1.203125 -1.0625 -3.171875l0 -0.109375zm1.453125 0.171875q0 1.40625 0.640625 2.265625q0.65625 0.84375 1.75 0.84375q1.109375 0 1.75 -0.859375q0.65625 -0.859375 0.65625 -2.421875q0 -1.390625 -0.671875 -2.25q-0.65625 -0.859375 -1.75 -0.859375q-1.0625 0 -1.71875 0.859375q-0.65625 0.84375 -0.65625 2.421875zm7.703125 -0.15625q0 -1.953125 0.921875 -3.125q0.921875 -1.1875 2.40625 -1.1875q1.484375 0 2.359375 1.015625l0 -4.40625l1.4375 0l0 12.0l-1.328125 0l-0.0625 -0.90625q-0.875 1.0625 -2.421875 1.0625q-1.46875 0 -2.390625 -1.203125q-0.921875 -1.203125 -0.921875 -3.140625l0 -0.109375zm1.4375 0.15625q0 1.4375 0.59375 2.25q0.59375 0.8125 1.640625 0.8125q1.375 0 2.015625 -1.234375l0 -3.875q-0.65625 -1.203125 -2.0 -1.203125q-1.0625 0 -1.65625 0.828125q-0.59375 0.8125 -0.59375 2.421875zm13.1484375 3.296875q-0.84375 1.0 -2.46875 1.0q-1.359375 0 -2.0625 -0.78125q-0.703125 -0.796875 -0.71875 -2.328125l0 -5.5l1.453125 0l0 5.453125q0 1.921875 1.5625 1.921875q1.65625 0 2.203125 -1.234375l0 -6.140625l1.4375 0l0 8.453125l-1.375 0l-0.03125 -0.84375zm6.9921875 -0.1875q0.78125 0 1.359375 -0.46875q0.578125 -0.46875 0.640625 -1.171875l1.359375 0q-0.03125 0.734375 -0.5 1.390625q-0.453125 0.65625 -1.234375 1.046875q-0.765625 0.390625 -1.625 0.390625q-1.71875 0 -2.75 -1.15625q-1.015625 -1.15625 -1.015625 -3.15625l0 -0.234375q0 -1.234375 0.453125 -2.1875q0.453125 -0.96875 1.296875 -1.5q0.859375 -0.53125 2.015625 -0.53125q1.421875 0 2.359375 0.859375q0.9375 0.84375 1.0 2.203125l-1.359375 0q-0.0625 -0.828125 -0.625 -1.34375q-0.5625 -0.53125 -1.375 -0.53125q-1.109375 0 -1.71875 0.796875q-0.59375 0.78125 -0.59375 2.28125l0 0.28125q0 1.453125 0.59375 2.25q0.609375 0.78125 1.71875 0.78125zm8.5 1.1875q-1.71875 0 -2.796875 -1.125q-1.078125 -1.140625 -1.078125 -3.03125l0 -0.265625q0 -1.25 0.46875 -2.234375q0.484375 -1.0 1.34375 -1.546875q0.875 -0.5625 1.875 -0.5625q1.65625 0 2.5625 1.09375q0.921875 1.078125 0.921875 3.09375l0 0.609375l-5.734375 0q0.03125 1.25 0.734375 2.015625q0.703125 0.765625 1.78125 0.765625q0.765625 0 1.296875 -0.3125q0.53125 -0.3125 0.921875 -0.828125l0.890625 0.6875q-1.0625 1.640625 -3.1875 1.640625zm-0.1875 -7.578125q-0.875 0 -1.46875 0.640625q-0.59375 0.625 -0.734375 1.78125l4.234375 0l0 -0.109375q-0.0625 -1.109375 -0.59375 -1.703125q-0.53125 -0.609375 -1.4375 -0.609375zm9.2421875 0.265625q-0.328125 -0.0625 -0.71875 -0.0625q-1.421875 0 -1.921875 1.21875l0 6.0l-1.453125 0l0 -8.453125l1.40625 0l0.03125 0.96875q0.703125 -1.125 2.015625 -1.125q0.421875 0 0.640625 0.109375l0 1.34375zm6.2421875 4.90625q0 -0.578125 -0.4375 -0.90625q-0.4375 -0.328125 -1.546875 -0.5625q-1.09375 -0.234375 -1.734375 -0.5625q-0.640625 -0.328125 -0.953125 -0.78125q-0.3125 -0.453125 -0.3125 -1.078125q0 -1.03125 0.875 -1.75q0.890625 -0.71875 2.25 -0.71875q1.4375 0 2.328125 0.75q0.90625 0.734375 0.90625 1.890625l-1.453125 0q0 -0.59375 -0.515625 -1.015625q-0.5 -0.4375 -1.265625 -0.4375q-0.78125 0 -1.234375 0.34375q-0.4375 0.34375 -0.4375 0.890625q0 0.53125 0.40625 0.796875q0.421875 0.265625 1.5 0.515625q1.078125 0.234375 1.75 0.578125q0.671875 0.328125 1.0 0.796875q0.328125 0.46875 0.328125 1.15625q0 1.125 -0.90625 1.8125q-0.90625 0.6875 -2.359375 0.6875q-1.015625 0 -1.796875 -0.359375q-0.78125 -0.359375 -1.21875 -1.0q-0.4375 -0.65625 -0.4375 -1.40625l1.4375 0q0.046875 0.734375 0.578125 1.15625q0.546875 0.421875 1.4375 0.421875q0.828125 0 1.3125 -0.328125q0.5 -0.328125 0.5 -0.890625z" fill-rule="nonzero"/><path fill="#000000" fill-opacity="0.0" d="m254.86876 285.64566l0 0c0 -40.29503 32.665604 -72.96062 72.96065 -72.96062l0 0c19.350342 0 37.908173 7.686905 51.590942 21.369675c13.68277 13.68277 21.36969 32.2406 21.36969 51.590942l0 0c0 40.295044 -32.66559 72.96063 -72.96063 72.96063l0 0c-40.295044 0 -72.96065 -32.66559 -72.96065 -72.96063z" fill-rule="evenodd"/><path stroke="#303030" stroke-width="1.0" stroke-linejoin="round" stroke-linecap="butt" d="m254.86876 285.64566l0 0c0 -40.29503 32.665604 -72.96062 72.96065 -72.96062l0 0c19.350342 0 37.908173 7.686905 51.590942 21.369675c13.68277 13.68277 21.36969 32.2406 21.36969 51.590942l0 0c0 40.295044 -32.66559 72.96063 -72.96063 72.96063l0 0c-40.295044 0 -72.96065 -32.66559 -72.96065 -72.96063z" fill-rule="evenodd"/><path fill="#000000" d="m316.67316 267.47443l-4.765625 0l0 5.03125l-1.5 0l0 -11.375l7.046875 0l0 1.234375l-5.546875 0l0 3.890625l4.765625 0l0 1.21875zm7.296875 5.03125q-0.125 -0.25 -0.203125 -0.890625q-1.0 1.046875 -2.40625 1.046875q-1.25 0 -2.046875 -0.703125q-0.796875 -0.71875 -0.796875 -1.796875q0 -1.328125 1.0 -2.046875q1.0 -0.734375 2.828125 -0.734375l1.40625 0l0 -0.671875q0 -0.75 -0.453125 -1.203125q-0.453125 -0.453125 -1.34375 -0.453125q-0.765625 0 -1.296875 0.390625q-0.515625 0.390625 -0.515625 0.953125l-1.453125 0q0 -0.640625 0.4375 -1.21875q0.453125 -0.59375 1.21875 -0.9375q0.78125 -0.34375 1.703125 -0.34375q1.453125 0 2.28125 0.734375q0.828125 0.71875 0.859375 2.0l0 3.890625q0 1.171875 0.296875 1.859375l0 0.125l-1.515625 0zm-2.390625 -1.109375q0.671875 0 1.28125 -0.34375q0.609375 -0.359375 0.890625 -0.921875l0 -1.734375l-1.140625 0q-2.65625 0 -2.65625 1.5625q0 0.671875 0.453125 1.0625q0.453125 0.375 1.171875 0.375zm7.25 -7.34375l0.046875 1.0625q0.96875 -1.21875 2.53125 -1.21875q2.671875 0 2.703125 3.015625l0 5.59375l-1.453125 0l0 -5.59375q0 -0.921875 -0.421875 -1.359375q-0.40625 -0.4375 -1.265625 -0.4375q-0.703125 0 -1.234375 0.375q-0.53125 0.375 -0.828125 0.984375l0 6.03125l-1.453125 0l0 -8.453125l1.375 0zm12.375 6.203125q0 -0.578125 -0.4375 -0.90625q-0.4375 -0.328125 -1.546875 -0.5625q-1.09375 -0.234375 -1.734375 -0.5625q-0.640625 -0.328125 -0.953125 -0.78125q-0.3125 -0.453125 -0.3125 -1.078125q0 -1.03125 0.875 -1.75q0.890625 -0.71875 2.25 -0.71875q1.4375 0 2.328125 0.75q0.90625 0.734375 0.90625 1.890625l-1.453125 0q0 -0.59375 -0.515625 -1.015625q-0.5 -0.4375 -1.265625 -0.4375q-0.78125 0 -1.234375 0.34375q-0.4375 0.34375 -0.4375 0.890625q0 0.53125 0.40625 0.796875q0.421875 0.265625 1.5 0.515625q1.078125 0.234375 1.75 0.578125q0.671875 0.328125 1.0 0.796875q0.328125 0.46875 0.328125 1.15625q0 1.125 -0.90625 1.8125q-0.90625 0.6875 -2.359375 0.6875q-1.015625 0 -1.796875 -0.359375q-0.78125 -0.359375 -1.21875 -1.0q-0.4375 -0.65625 -0.4375 -1.40625l1.4375 0q0.046875 0.734375 0.578125 1.15625q0.546875 0.421875 1.4375 0.421875q0.828125 0 1.3125 -0.328125q0.5 -0.328125 0.5 -0.890625zm3.28125 4.515625l-0.8125 -0.5625q0.734375 -1.015625 0.765625 -2.109375l0 -1.3125l1.40625 0l0 1.140625q0 0.796875 -0.390625 1.578125q-0.375 0.796875 -0.96875 1.265625z" fill-rule="nonzero"/><path fill="#000000" d="m301.388 287.05255l0 4.453125l-1.5 0l0 -11.375l4.1875 0q1.875 0 2.921875 0.953125q1.0625 0.953125 1.0625 2.515625q0 1.65625 -1.03125 2.5625q-1.03125 0.890625 -2.96875 0.890625l-2.671875 0zm0 -1.234375l2.6875 0q1.203125 0 1.84375 -0.5625q0.640625 -0.5625 0.640625 -1.640625q0 -1.015625 -0.640625 -1.625q-0.640625 -0.609375 -1.75 -0.625l-2.78125 0l0 4.453125zm13.4921875 5.6875q-0.125 -0.25 -0.203125 -0.890625q-1.0 1.046875 -2.40625 1.046875q-1.25 0 -2.046875 -0.703125q-0.796875 -0.71875 -0.796875 -1.796875q0 -1.328125 1.0 -2.046875q1.0 -0.734375 2.828125 -0.734375l1.40625 0l0 -0.671875q0 -0.75 -0.453125 -1.203125q-0.453125 -0.453125 -1.34375 -0.453125q-0.765625 0 -1.296875 0.390625q-0.515625 0.390625 -0.515625 0.953125l-1.453125 0q0 -0.640625 0.4375 -1.21875q0.453125 -0.59375 1.21875 -0.9375q0.78125 -0.34375 1.703125 -0.34375q1.453125 0 2.28125 0.734375q0.828125 0.71875 0.859375 2.0l0 3.890625q0 1.171875 0.296875 1.859375l0 0.125l-1.515625 0zm-2.390625 -1.109375q0.671875 0 1.28125 -0.34375q0.609375 -0.359375 0.890625 -0.921875l0 -1.734375l-1.140625 0q-2.65625 0 -2.65625 1.5625q0 0.671875 0.453125 1.0625q0.453125 0.375 1.171875 0.375zm7.84375 -9.390625l0 2.046875l1.578125 0l0 1.109375l-1.578125 0l0 5.25q0 0.5 0.203125 0.765625q0.21875 0.25 0.71875 0.25q0.25 0 0.6875 -0.09375l0 1.171875q-0.5625 0.15625 -1.109375 0.15625q-0.96875 0 -1.46875 -0.578125q-0.484375 -0.59375 -0.484375 -1.671875l0 -5.25l-1.53125 0l0 -1.109375l1.53125 0l0 -2.046875l1.453125 0zm7.3515625 3.34375q-0.328125 -0.0625 -0.71875 -0.0625q-1.421875 0 -1.921875 1.21875l0 6.0l-1.453125 0l0 -8.453125l1.40625 0l0.03125 0.96875q0.703125 -1.125 2.015625 -1.125q0.421875 0 0.640625 0.109375l0 1.34375zm0.7890625 2.84375q0 -1.234375 0.484375 -2.21875q0.484375 -1.0 1.359375 -1.53125q0.875 -0.546875 1.984375 -0.546875q1.734375 0 2.796875 1.203125q1.0625 1.1875 1.0625 3.171875l0 0.09375q0 1.234375 -0.46875 2.21875q-0.46875 0.984375 -1.359375 1.53125q-0.875 0.546875 -2.015625 0.546875q-1.71875 0 -2.78125 -1.1875q-1.0625 -1.203125 -1.0625 -3.171875l0 -0.109375zm1.453125 0.171875q0 1.40625 0.640625 2.265625q0.65625 0.84375 1.75 0.84375q1.109375 0 1.75 -0.859375q0.65625 -0.859375 0.65625 -2.421875q0 -1.390625 -0.671875 -2.25q-0.65625 -0.859375 -1.75 -0.859375q-1.0625 0 -1.71875 0.859375q-0.65625 0.84375 -0.65625 2.421875zm9.421875 -4.3125l0.046875 1.0625q0.96875 -1.21875 2.53125 -1.21875q2.671875 0 2.703125 3.015625l0 5.59375l-1.453125 0l0 -5.59375q0 -0.921875 -0.421875 -1.359375q-0.40625 -0.4375 -1.265625 -0.4375q-0.703125 0 -1.234375 0.375q-0.53125 0.375 -0.828125 0.984375l0 6.03125l-1.453125 0l0 -8.453125l1.375 0zm12.375 6.203125q0 -0.578125 -0.4375 -0.90625q-0.4375 -0.328125 -1.546875 -0.5625q-1.09375 -0.234375 -1.734375 -0.5625q-0.640625 -0.328125 -0.953125 -0.78125q-0.3125 -0.453125 -0.3125 -1.078125q0 -1.03125 0.875 -1.75q0.890625 -0.71875 2.25 -0.71875q1.4375 0 2.328125 0.75q0.90625 0.734375 0.90625 1.890625l-1.453125 0q0 -0.59375 -0.515625 -1.015625q-0.5 -0.4375 -1.265625 -0.4375q-0.78125 0 -1.234375 0.34375q-0.4375 0.34375 -0.4375 0.890625q0 0.53125 0.40625 0.796875q0.421875 0.265625 1.5 0.515625q1.078125 0.234375 1.75 0.578125q0.671875 0.328125 1.0 0.796875q0.328125 0.46875 0.328125 1.15625q0 1.125 -0.90625 1.8125q-0.90625 0.6875 -2.359375 0.6875q-1.015625 0 -1.796875 -0.359375q-0.78125 -0.359375 -1.21875 -1.0q-0.4375 -0.65625 -0.4375 -1.40625l1.4375 0q0.046875 0.734375 0.578125 1.15625q0.546875 0.421875 1.4375 0.421875q0.828125 0 1.3125 -0.328125q0.5 -0.328125 0.5 -0.890625zm3.28125 4.515625l-0.8125 -0.5625q0.734375 -1.015625 0.765625 -2.109375l0 -1.3125l1.40625 0l0 1.140625q0 0.796875 -0.390625 1.578125q-0.375 0.796875 -0.96875 1.265625z" fill-rule="nonzero"/><path fill="#000000" d="m298.05988 310.50568l-1.5 0l0 -11.375l1.5 0l0 11.375zm3.8828125 -8.453125l0.046875 1.0625q0.96875 -1.21875 2.53125 -1.21875q2.671875 0 2.703125 3.015625l0 5.59375l-1.453125 0l0 -5.59375q0 -0.921875 -0.421875 -1.359375q-0.40625 -0.4375 -1.265625 -0.4375q-0.703125 0 -1.234375 0.375q-0.53125 0.375 -0.828125 0.984375l0 6.03125l-1.453125 0l0 -8.453125l1.375 0zm10.25 6.484375l2.09375 -6.484375l1.46875 0l-3.03125 8.453125l-1.09375 0l-3.0625 -8.453125l1.46875 0l2.15625 6.484375zm8.3671875 2.125q-1.71875 0 -2.796875 -1.125q-1.078125 -1.140625 -1.078125 -3.03125l0 -0.265625q0 -1.25 0.46875 -2.234375q0.484375 -1.0 1.34375 -1.546875q0.875 -0.5625 1.875 -0.5625q1.65625 0 2.5625 1.09375q0.921875 1.078125 0.921875 3.09375l0 0.609375l-5.734375 0q0.03125 1.25 0.734375 2.015625q0.703125 0.765625 1.78125 0.765625q0.765625 0 1.296875 -0.3125q0.53125 -0.3125 0.921875 -0.828125l0.890625 0.6875q-1.0625 1.640625 -3.1875 1.640625zm-0.1875 -7.578125q-0.875 0 -1.46875 0.640625q-0.59375 0.625 -0.734375 1.78125l4.234375 0l0 -0.109375q-0.0625 -1.109375 -0.59375 -1.703125q-0.53125 -0.609375 -1.4375 -0.609375zm10.0703125 5.171875q0 -0.578125 -0.4375 -0.90625q-0.4375 -0.328125 -1.546875 -0.5625q-1.09375 -0.234375 -1.734375 -0.5625q-0.640625 -0.328125 -0.953125 -0.78125q-0.3125 -0.453125 -0.3125 -1.078125q0 -1.03125 0.875 -1.75q0.890625 -0.71875 2.25 -0.71875q1.4375 0 2.328125 0.75q0.90625 0.734375 0.90625 1.890625l-1.453125 0q0 -0.59375 -0.515625 -1.015625q-0.5 -0.4375 -1.265625 -0.4375q-0.78125 0 -1.234375 0.34375q-0.4375 0.34375 -0.4375 0.890625q0 0.53125 0.40625 0.796875q0.421875 0.265625 1.5 0.515625q1.078125 0.234375 1.75 0.578125q0.671875 0.328125 1.0 0.796875q0.328125 0.46875 0.328125 1.15625q0 1.125 -0.90625 1.8125q-0.90625 0.6875 -2.359375 0.6875q-1.015625 0 -1.796875 -0.359375q-0.78125 -0.359375 -1.21875 -1.0q-0.4375 -0.65625 -0.4375 -1.40625l1.4375 0q0.046875 0.734375 0.578125 1.15625q0.546875 0.421875 1.4375 0.421875q0.828125 0 1.3125 -0.328125q0.5 -0.328125 0.5 -0.890625zm5.296875 -8.25l0 2.046875l1.578125 0l0 1.109375l-1.578125 0l0 5.25q0 0.5 0.203125 0.765625q0.21875 0.25 0.71875 0.25q0.25 0 0.6875 -0.09375l0 1.171875q-0.5625 0.15625 -1.109375 0.15625q-0.96875 0 -1.46875 -0.578125q-0.484375 -0.59375 -0.484375 -1.671875l0 -5.25l-1.53125 0l0 -1.109375l1.53125 0l0 -2.046875l1.453125 0zm2.7265625 6.1875q0 -1.234375 0.484375 -2.21875q0.484375 -1.0 1.359375 -1.53125q0.875 -0.546875 1.984375 -0.546875q1.734375 0 2.796875 1.203125q1.0625 1.1875 1.0625 3.171875l0 0.09375q0 1.234375 -0.46875 2.21875q-0.46875 0.984375 -1.359375 1.53125q-0.875 0.546875 -2.015625 0.546875q-1.71875 0 -2.78125 -1.1875q-1.0625 -1.203125 -1.0625 -3.171875l0 -0.109375zm1.453125 0.171875q0 1.40625 0.640625 2.265625q0.65625 0.84375 1.75 0.84375q1.109375 0 1.75 -0.859375q0.65625 -0.859375 0.65625 -2.421875q0 -1.390625 -0.671875 -2.25q-0.65625 -0.859375 -1.75 -0.859375q-1.0625 0 -1.71875 0.859375q-0.65625 0.84375 -0.65625 2.421875zm12.140625 -3.015625q-0.328125 -0.0625 -0.71875 -0.0625q-1.421875 0 -1.921875 1.21875l0 6.0l-1.453125 0l0 -8.453125l1.40625 0l0.03125 0.96875q0.703125 -1.125 2.015625 -1.125q0.421875 0 0.640625 0.109375l0 1.34375zm6.2421875 4.90625q0 -0.578125 -0.4375 -0.90625q-0.4375 -0.328125 -1.546875 -0.5625q-1.09375 -0.234375 -1.734375 -0.5625q-0.640625 -0.328125 -0.953125 -0.78125q-0.3125 -0.453125 -0.3125 -1.078125q0 -1.03125 0.875 -1.75q0.890625 -0.71875 2.25 -0.71875q1.4375 0 2.328125 0.75q0.90625 0.734375 0.90625 1.890625l-1.453125 0q0 -0.59375 -0.515625 -1.015625q-0.5 -0.4375 -1.265625 -0.4375q-0.78125 0 -1.234375 0.34375q-0.4375 0.34375 -0.4375 0.890625q0 0.53125 0.40625 0.796875q0.421875 0.265625 1.5 0.515625q1.078125 0.234375 1.75 0.578125q0.671875 0.328125 1.0 0.796875q0.328125 0.46875 0.328125 1.15625q0 1.125 -0.90625 1.8125q-0.90625 0.6875 -2.359375 0.6875q-1.015625 0 -1.796875 -0.359375q-0.78125 -0.359375 -1.21875 -1.0q-0.4375 -0.65625 -0.4375 -1.40625l1.4375 0q0.046875 0.734375 0.578125 1.15625q0.546875 0.421875 1.4375 0.421875q0.828125 0 1.3125 -0.328125q0.5 -0.328125 0.5 -0.890625z" fill-rule="nonzero"/><path fill="#000000" fill-opacity="0.0" d="m564.874 285.15747l0 0c0 -40.29503 32.66559 -72.96062 72.96063 -72.96062l0 0c19.350342 0 37.908203 7.686905 51.590942 21.369675c13.6828 13.68277 21.36969 32.2406 21.36969 51.590942l0 0c0 40.295044 -32.66559 72.96063 -72.96063 72.96063l0 0c-40.295044 0 -72.96063 -32.66559 -72.96063 -72.96063z" fill-rule="evenodd"/><path stroke="#303030" stroke-width="1.0" stroke-linejoin="round" stroke-linecap="butt" d="m564.874 285.15747l0 0c0 -40.29503 32.66559 -72.96062 72.96063 -72.96062l0 0c19.350342 0 37.908203 7.686905 51.590942 21.369675c13.6828 13.68277 21.36969 32.2406 21.36969 51.590942l0 0c0 40.295044 -32.66559 72.96063 -72.96063 72.96063l0 0c-40.295044 0 -72.96063 -32.66559 -72.96063 -72.96063z" fill-rule="evenodd"/><path fill="#000000" d="m617.88153 251.14247l3.71875 9.281265l3.71875 -9.281265l1.9375 0l0 11.375015l-1.5 0l0 -4.4375l0.140625 -4.7812653l-3.734375 9.218765l-1.140625 0l-3.734375 -9.187515l0.15625 4.7500153l0 4.4375l-1.5 0l0 -11.375015l1.9375 0zm17.015625 10.531265q-0.84375 1.0 -2.46875 1.0q-1.359375 0 -2.0625 -0.78125q-0.703125 -0.796875 -0.71875 -2.328125l0 -5.5000153l1.453125 0l0 5.4531403q0 1.921875 1.5625 1.921875q1.65625 0 2.203125 -1.234375l0 -6.1406403l1.4375 0l0 8.45314l-1.375 0l-0.03125 -0.84375zm8.5234375 -1.40625q0 -0.578125 -0.4375 -0.90625q-0.4375 -0.328125 -1.546875 -0.5625q-1.09375 -0.234375 -1.734375 -0.5625q-0.640625 -0.328125 -0.953125 -0.78125q-0.3125 -0.453125 -0.3125 -1.078125q0 -1.0312653 0.875 -1.7500153q0.890625 -0.71875 2.25 -0.71875q1.4375 0 2.328125 0.75q0.90625 0.734375 0.90625 1.8906403l-1.453125 0q0 -0.59376526 -0.515625 -1.0156403q-0.5 -0.4375 -1.265625 -0.4375q-0.78125 0 -1.234375 0.34375q-0.4375 0.34375 -0.4375 0.89064026q0 0.53125 0.40625 0.796875q0.421875 0.265625 1.5 0.515625q1.078125 0.234375 1.75 0.578125q0.671875 0.328125 1.0 0.796875q0.328125 0.46875 0.328125 1.15625q0 1.125 -0.90625 1.8125q-0.90625 0.6875 -2.359375 0.6875q-1.015625 0 -1.796875 -0.359375q-0.78125 -0.359375 -1.21875 -1.0q-0.4375 -0.65625 -0.4375 -1.40625l1.4375 0q0.046875 0.734375 0.578125 1.15625q0.546875 0.421875 1.4375 0.421875q0.828125 0 1.3125 -0.328125q0.5 -0.328125 0.5 -0.890625zm4.90625 2.25l-1.453125 0l0 -8.45314l1.453125 0l0 8.45314zm-1.5625 -10.70314q0 -0.34375 0.203125 -0.578125q0.21875 -0.25 0.640625 -0.25q0.421875 0 0.640625 0.25q0.21875 0.234375 0.21875 0.59375q0 0.34375 -0.21875 0.578125q-0.21875 0.234375 -0.640625 0.234375q-0.421875 0 -0.640625 -0.234375q-0.203125 -0.234375 -0.203125 -0.59375zm7.2578125 9.67189q0.78125 0 1.359375 -0.46875q0.578125 -0.46875 0.640625 -1.171875l1.359375 0q-0.03125 0.734375 -0.5 1.390625q-0.453125 0.65625 -1.234375 1.046875q-0.765625 0.390625 -1.625 0.390625q-1.71875 0 -2.75 -1.15625q-1.015625 -1.15625 -1.015625 -3.15625l0 -0.234375q0 -1.234375 0.453125 -2.1875153q0.453125 -0.96875 1.296875 -1.5q0.859375 -0.53125 2.015625 -0.53125q1.421875 0 2.359375 0.859375q0.9375 0.84375 1.0 2.2031403l-1.359375 0q-0.0625 -0.828125 -0.625 -1.3437653q-0.5625 -0.53125 -1.375 -0.53125q-1.109375 0 -1.71875 0.796875q-0.59375 0.78126526 -0.59375 2.2812653l0 0.28125q0 1.453125 0.59375 2.25q0.609375 0.78125 1.71875 0.78125zm4.9375 3.296875l-0.8125 -0.5625q0.734375 -1.015625 0.765625 -2.109375l0 -1.3125l1.40625 0l0 1.140625q0 0.796875 -0.390625 1.578125q-0.375 0.796875 -0.96875 1.265625z" fill-rule="nonzero"/><path fill="#000000" d="m616.88934 279.5175l3.25 -9.375l1.640625 0l-4.21875 11.375l-1.328125 0l-4.21875 -11.375l1.640625 0l3.234375 9.375zm7.7578125 2.0l-1.453125 0l0 -8.453125l1.453125 0l0 8.453125zm-1.5625 -10.703125q0 -0.34375 0.203125 -0.578125q0.21875 -0.25 0.640625 -0.25q0.421875 0 0.640625 0.25q0.21875 0.234375 0.21875 0.59375q0 0.34375 -0.21875 0.578125q-0.21875 0.234375 -0.640625 0.234375q-0.421875 0 -0.640625 -0.234375q-0.203125 -0.234375 -0.203125 -0.59375zm3.5234375 6.40625q0 -1.953125 0.921875 -3.125q0.921875 -1.1875 2.40625 -1.1875q1.484375 0 2.359375 1.015625l0 -4.40625l1.4375 0l0 12.0l-1.328125 0l-0.0625 -0.90625q-0.875 1.0625 -2.421875 1.0625q-1.46875 0 -2.390625 -1.203125q-0.921875 -1.203125 -0.921875 -3.140625l0 -0.109375zm1.4375 0.15625q0 1.4375 0.59375 2.25q0.59375 0.8125 1.640625 0.8125q1.375 0 2.015625 -1.234375l0 -3.875q-0.65625 -1.203125 -2.0 -1.203125q-1.0625 0 -1.65625 0.828125q-0.59375 0.8125 -0.59375 2.421875zm11.4453125 4.296875q-1.71875 0 -2.796875 -1.125q-1.078125 -1.140625 -1.078125 -3.03125l0 -0.265625q0 -1.25 0.46875 -2.234375q0.484375 -1.0 1.34375 -1.546875q0.875 -0.5625 1.875 -0.5625q1.65625 0 2.5625 1.09375q0.921875 1.078125 0.921875 3.09375l0 0.609375l-5.734375 0q0.03125 1.25 0.734375 2.015625q0.703125 0.765625 1.78125 0.765625q0.765625 0 1.296875 -0.3125q0.53125 -0.3125 0.921875 -0.828125l0.890625 0.6875q-1.0625 1.640625 -3.1875 1.640625zm-0.1875 -7.578125q-0.875 0 -1.46875 0.640625q-0.59375 0.625 -0.734375 1.78125l4.234375 0l0 -0.109375q-0.0625 -1.109375 -0.59375 -1.703125q-0.53125 -0.609375 -1.4375 -0.609375zm4.7734375 3.109375q0 -1.234375 0.484375 -2.21875q0.484375 -1.0 1.359375 -1.53125q0.875 -0.546875 1.984375 -0.546875q1.734375 0 2.796875 1.203125q1.0625 1.1875 1.0625 3.171875l0 0.09375q0 1.234375 -0.46875 2.21875q-0.46875 0.984375 -1.359375 1.53125q-0.875 0.546875 -2.015625 0.546875q-1.71875 0 -2.78125 -1.1875q-1.0625 -1.203125 -1.0625 -3.171875l0 -0.109375zm1.453125 0.171875q0 1.40625 0.640625 2.265625q0.65625 0.84375 1.75 0.84375q1.109375 0 1.75 -0.859375q0.65625 -0.859375 0.65625 -2.421875q0 -1.390625 -0.671875 -2.25q-0.65625 -0.859375 -1.75 -0.859375q-1.0625 0 -1.71875 0.859375q-0.65625 0.84375 -0.65625 2.421875zm12.96875 1.890625q0 -0.578125 -0.4375 -0.90625q-0.4375 -0.328125 -1.546875 -0.5625q-1.09375 -0.234375 -1.734375 -0.5625q-0.640625 -0.328125 -0.953125 -0.78125q-0.3125 -0.453125 -0.3125 -1.078125q0 -1.03125 0.875 -1.75q0.890625 -0.71875 2.25 -0.71875q1.4375 0 2.328125 0.75q0.90625 0.734375 0.90625 1.890625l-1.453125 0q0 -0.59375 -0.515625 -1.015625q-0.5 -0.4375 -1.265625 -0.4375q-0.78125 0 -1.234375 0.34375q-0.4375 0.34375 -0.4375 0.890625q0 0.53125 0.40625 0.796875q0.421875 0.265625 1.5 0.515625q1.078125 0.234375 1.75 0.578125q0.671875 0.328125 1.0 0.796875q0.328125 0.46875 0.328125 1.15625q0 1.125 -0.90625 1.8125q-0.90625 0.6875 -2.359375 0.6875q-1.015625 0 -1.796875 -0.359375q-0.78125 -0.359375 -1.21875 -1.0q-0.4375 -0.65625 -0.4375 -1.40625l1.4375 0q0.046875 0.734375 0.578125 1.15625q0.546875 0.421875 1.4375 0.421875q0.828125 0 1.3125 -0.328125q0.5 -0.328125 0.5 -0.890625zm3.28125 4.515625l-0.8125 -0.5625q0.734375 -1.015625 0.765625 -2.109375l0 -1.3125l1.40625 0l0 1.140625q0 0.796875 -0.390625 1.578125q-0.375 0.796875 -0.96875 1.265625z" fill-rule="nonzero"/><path fill="#000000" d="m617.08075 289.1425l3.71875 9.28125l3.71875 -9.28125l1.9375 0l0 11.375l-1.5 0l0 -4.4375l0.140625 -4.78125l-3.734375 9.21875l-1.140625 0l-3.734375 -9.1875l0.15625 4.75l0 4.4375l-1.5 0l0 -11.375l1.9375 0zm15.3125 11.53125q-1.71875 0 -2.796875 -1.125q-1.078125 -1.140625 -1.078125 -3.03125l0 -0.265625q0 -1.25 0.46875 -2.234375q0.484375 -1.0 1.34375 -1.546875q0.875 -0.5625 1.875 -0.5625q1.65625 0 2.5625 1.09375q0.921875 1.078125 0.921875 3.09375l0 0.609375l-5.734375 0q0.03125 1.25 0.734375 2.015625q0.703125 0.765625 1.78125 0.765625q0.765625 0 1.296875 -0.3125q0.53125 -0.3125 0.921875 -0.828125l0.890625 0.6875q-1.0625 1.640625 -3.1875 1.640625zm-0.1875 -7.578125q-0.875 0 -1.46875 0.640625q-0.59375 0.625 -0.734375 1.78125l4.234375 0l0 -0.109375q-0.0625 -1.109375 -0.59375 -1.703125q-0.53125 -0.609375 -1.4375 -0.609375zm9.2421875 0.265625q-0.328125 -0.0625 -0.71875 -0.0625q-1.421875 0 -1.921875 1.21875l0 6.0l-1.453125 0l0 -8.453125l1.40625 0l0.03125 0.96875q0.703125 -1.125 2.015625 -1.125q0.421875 0 0.640625 0.109375l0 1.34375zm4.5625 6.125q0.78125 0 1.359375 -0.46875q0.578125 -0.46875 0.640625 -1.171875l1.359375 0q-0.03125 0.734375 -0.5 1.390625q-0.453125 0.65625 -1.234375 1.046875q-0.765625 0.390625 -1.625 0.390625q-1.71875 0 -2.75 -1.15625q-1.015625 -1.15625 -1.015625 -3.15625l0 -0.234375q0 -1.234375 0.453125 -2.1875q0.453125 -0.96875 1.296875 -1.5q0.859375 -0.53125 2.015625 -0.53125q1.421875 0 2.359375 0.859375q0.9375 0.84375 1.0 2.203125l-1.359375 0q-0.0625 -0.828125 -0.625 -1.34375q-0.5625 -0.53125 -1.375 -0.53125q-1.109375 0 -1.71875 0.796875q-0.59375 0.78125 -0.59375 2.28125l0 0.28125q0 1.453125 0.59375 2.25q0.609375 0.78125 1.71875 0.78125zm6.4375 -6.40625q0.953125 -1.171875 2.5 -1.171875q2.671875 0 2.703125 3.015625l0 5.59375l-1.453125 0l0 -5.59375q0 -0.921875 -0.421875 -1.359375q-0.40625 -0.4375 -1.265625 -0.4375q-0.703125 0 -1.234375 0.375q-0.53125 0.375 -0.828125 0.984375l0 6.03125l-1.453125 0l0 -12.0l1.453125 0l0 4.5625zm7.3125 9.703125l-0.8125 -0.5625q0.734375 -1.015625 0.765625 -2.109375l0 -1.3125l1.40625 0l0 1.140625q0 0.796875 -0.390625 1.578125q-0.375 0.796875 -0.96875 1.265625z" fill-rule="nonzero"/><path fill="#000000" d="m615.27216 315.9081q-0.203125 1.796875 -1.328125 2.78125q-1.125 0.984375 -2.984375 0.984375q-2.015625 0 -3.234375 -1.4375q-1.203125 -1.453125 -1.203125 -3.875l0 -1.09375q0 -1.59375 0.5625 -2.796875q0.5625 -1.203125 1.59375 -1.84375q1.046875 -0.640625 2.421875 -0.640625q1.8125 0 2.90625 1.015625q1.09375 1.0 1.265625 2.796875l-1.5 0q-0.203125 -1.359375 -0.859375 -1.96875q-0.640625 -0.609375 -1.8125 -0.609375q-1.4375 0 -2.265625 1.0625q-0.8125 1.0625 -0.8125 3.015625l0 1.109375q0 1.84375 0.765625 2.9375q0.78125 1.09375 2.171875 1.09375q1.25 0 1.921875 -0.5625q0.671875 -0.5625 0.890625 -1.96875l1.5 0zm1.4453125 -0.703125q0 -1.234375 0.484375 -2.21875q0.484375 -1.0 1.359375 -1.53125q0.875 -0.546875 1.984375 -0.546875q1.734375 0 2.796875 1.203125q1.0625 1.1875 1.0625 3.171875l0 0.09375q0 1.234375 -0.46875 2.21875q-0.46875 0.984375 -1.359375 1.53125q-0.875 0.546875 -2.015625 0.546875q-1.71875 0 -2.78125 -1.1875q-1.0625 -1.203125 -1.0625 -3.171875l0 -0.109375zm1.453125 0.171875q0 1.40625 0.640625 2.265625q0.65625 0.84375 1.75 0.84375q1.109375 0 1.75 -0.859375q0.65625 -0.859375 0.65625 -2.421875q0 -1.390625 -0.671875 -2.25q-0.65625 -0.859375 -1.75 -0.859375q-1.0625 0 -1.71875 0.859375q-0.65625 0.84375 -0.65625 2.421875zm9.421875 -4.3125l0.046875 1.0625q0.96875 -1.21875 2.53125 -1.21875q2.671875 0 2.703125 3.015625l0 5.59375l-1.453125 0l0 -5.59375q0 -0.921875 -0.421875 -1.359375q-0.40625 -0.4375 -1.265625 -0.4375q-0.703125 0 -1.234375 0.375q-0.53125 0.375 -0.828125 0.984375l0 6.03125l-1.453125 0l0 -8.453125l1.375 0zm10.84375 7.421875q0.78125 0 1.359375 -0.46875q0.578125 -0.46875 0.640625 -1.171875l1.359375 0q-0.03125 0.734375 -0.5 1.390625q-0.453125 0.65625 -1.234375 1.046875q-0.765625 0.390625 -1.625 0.390625q-1.71875 0 -2.75 -1.15625q-1.015625 -1.15625 -1.015625 -3.15625l0 -0.234375q0 -1.234375 0.453125 -2.1875q0.453125 -0.96875 1.296875 -1.5q0.859375 -0.53125 2.015625 -0.53125q1.421875 0 2.359375 0.859375q0.9375 0.84375 1.0 2.203125l-1.359375 0q-0.0625 -0.828125 -0.625 -1.34375q-0.5625 -0.53125 -1.375 -0.53125q-1.109375 0 -1.71875 0.796875q-0.59375 0.78125 -0.59375 2.28125l0 0.28125q0 1.453125 0.59375 2.25q0.609375 0.78125 1.71875 0.78125zm8.5 1.1875q-1.71875 0 -2.796875 -1.125q-1.078125 -1.140625 -1.078125 -3.03125l0 -0.265625q0 -1.25 0.46875 -2.234375q0.484375 -1.0 1.34375 -1.546875q0.875 -0.5625 1.875 -0.5625q1.65625 0 2.5625 1.09375q0.921875 1.078125 0.921875 3.09375l0 0.609375l-5.734375 0q0.03125 1.25 0.734375 2.015625q0.703125 0.765625 1.78125 0.765625q0.765625 0 1.296875 -0.3125q0.53125 -0.3125 0.921875 -0.828125l0.890625 0.6875q-1.0625 1.640625 -3.1875 1.640625zm-0.1875 -7.578125q-0.875 0 -1.46875 0.640625q-0.59375 0.625 -0.734375 1.78125l4.234375 0l0 -0.109375q-0.0625 -1.109375 -0.59375 -1.703125q-0.53125 -0.609375 -1.4375 -0.609375zm9.2421875 0.265625q-0.328125 -0.0625 -0.71875 -0.0625q-1.421875 0 -1.921875 1.21875l0 6.0l-1.453125 0l0 -8.453125l1.40625 0l0.03125 0.96875q0.703125 -1.125 2.015625 -1.125q0.421875 0 0.640625 0.109375l0 1.34375zm3.6796875 -3.34375l0 2.046875l1.578125 0l0 1.109375l-1.578125 0l0 5.25q0 0.5 0.203125 0.765625q0.21875 0.25 0.71875 0.25q0.25 0 0.6875 -0.09375l0 1.171875q-0.5625 0.15625 -1.109375 0.15625q-0.96875 0 -1.46875 -0.578125q-0.484375 -0.59375 -0.484375 -1.671875l0 -5.25l-1.53125 0l0 -1.109375l1.53125 0l0 -2.046875l1.453125 0zm8.1796875 8.25q0 -0.578125 -0.4375 -0.90625q-0.4375 -0.328125 -1.546875 -0.5625q-1.09375 -0.234375 -1.734375 -0.5625q-0.640625 -0.328125 -0.953125 -0.78125q-0.3125 -0.453125 -0.3125 -1.078125q0 -1.03125 0.875 -1.75q0.890625 -0.71875 2.25 -0.71875q1.4375 0 2.328125 0.75q0.90625 0.734375 0.90625 1.890625l-1.453125 0q0 -0.59375 -0.515625 -1.015625q-0.5 -0.4375 -1.265625 -0.4375q-0.78125 0 -1.234375 0.34375q-0.4375 0.34375 -0.4375 0.890625q0 0.53125 0.40625 0.796875q0.421875 0.265625 1.5 0.515625q1.078125 0.234375 1.75 0.578125q0.671875 0.328125 1.0 0.796875q0.328125 0.46875 0.328125 1.15625q0 1.125 -0.90625 1.8125q-0.90625 0.6875 -2.359375 0.6875q-1.015625 0 -1.796875 -0.359375q-0.78125 -0.359375 -1.21875 -1.0q-0.4375 -0.65625 -0.4375 -1.40625l1.4375 0q0.046875 0.734375 0.578125 1.15625q0.546875 0.421875 1.4375 0.421875q0.828125 0 1.3125 -0.328125q0.5 -0.328125 0.5 -0.890625z" fill-rule="nonzero"/><path fill="#000000" fill-opacity="0.0" d="m409.8714 420.4567l0 0c0 -42.799896 34.696167 -77.49606 77.49606 -77.49606l0 0c20.553223 0 40.26468 8.164734 54.798004 22.69806c14.533325 14.533356 22.69806 34.24478 22.69806 54.798004l0 0c0 42.799896 -34.696167 77.49606 -77.49606 77.49606l0 0c-42.799896 0 -77.49606 -34.696167 -77.49606 -77.49606z" fill-rule="evenodd"/><path stroke="#303030" stroke-width="1.0" stroke-linejoin="round" stroke-linecap="butt" d="m409.8714 420.4567l0 0c0 -42.799896 34.696167 -77.49606 77.49606 -77.49606l0 0c20.553223 0 40.26468 8.164734 54.798004 22.69806c14.533325 14.533356 22.69806 34.24478 22.69806 54.798004l0 0c0 42.799896 -34.696167 77.49606 -77.49606 77.49606l0 0c-42.799896 0 -77.49606 -34.696167 -77.49606 -77.49606z" fill-rule="evenodd"/><path fill="#000000" d="m477.2112 388.31668l-1.5 0l-5.734375 -8.765625l0 8.765625l-1.5 0l0 -11.375l1.5 0l5.75 8.796875l0 -8.796875l1.484375 0l0 11.375zm8.9375 -5.03125l-4.765625 0l0 5.03125l-1.5 0l0 -11.375l7.046875 0l0 1.234375l-5.546875 0l0 3.890625l4.765625 0l0 1.21875zm10.59375 -5.109375l-3.65625 0l0 10.140625l-1.5 0l0 -10.140625l-3.640625 0l0 -1.234375l8.796875 0l0 1.234375zm5.46875 7.890625q0 -0.578125 -0.4375 -0.90625q-0.4375 -0.328125 -1.546875 -0.5625q-1.09375 -0.234375 -1.734375 -0.5625q-0.640625 -0.328125 -0.953125 -0.78125q-0.3125 -0.453125 -0.3125 -1.078125q0 -1.03125 0.875 -1.75q0.890625 -0.71875 2.25 -0.71875q1.4375 0 2.328125 0.75q0.90625 0.734375 0.90625 1.890625l-1.453125 0q0 -0.59375 -0.515625 -1.015625q-0.5 -0.4375 -1.265625 -0.4375q-0.78125 0 -1.234375 0.34375q-0.4375 0.34375 -0.4375 0.890625q0 0.53125 0.40625 0.796875q0.421875 0.265625 1.5 0.515625q1.078125 0.234375 1.75 0.578125q0.671875 0.328125 1.0 0.796875q0.328125 0.46875 0.328125 1.15625q0 1.125 -0.90625 1.8125q-0.90625 0.6875 -2.359375 0.6875q-1.015625 0 -1.796875 -0.359375q-0.78125 -0.359375 -1.21875 -1.0q-0.4375 -0.65625 -0.4375 -1.40625l1.4375 0q0.046875 0.734375 0.578125 1.15625q0.546875 0.421875 1.4375 0.421875q0.828125 0 1.3125 -0.328125q0.5 -0.328125 0.5 -0.890625zm3.28125 4.515625l-0.8125 -0.5625q0.734375 -1.015625 0.765625 -2.109375l0 -1.3125l1.40625 0l0 1.140625q0 0.796875 -0.390625 1.578125q-0.375 0.796875 -0.96875 1.265625z" fill-rule="nonzero"/><path fill="#000000" d="m459.2073 405.31668l3.25 -9.375l1.640625 0l-4.21875 11.375l-1.328125 0l-4.21875 -11.375l1.640625 0l3.234375 9.375zm9.3515625 2.15625q-1.71875 0 -2.796875 -1.125q-1.078125 -1.140625 -1.078125 -3.03125l0 -0.265625q0 -1.25 0.46875 -2.234375q0.484375 -1.0 1.34375 -1.546875q0.875 -0.5625 1.875 -0.5625q1.65625 0 2.5625 1.09375q0.921875 1.078125 0.921875 3.09375l0 0.609375l-5.734375 0q0.03125 1.25 0.734375 2.015625q0.703125 0.765625 1.78125 0.765625q0.765625 0 1.296875 -0.3125q0.53125 -0.3125 0.921875 -0.828125l0.890625 0.6875q-1.0625 1.640625 -3.1875 1.640625zm-0.1875 -7.578125q-0.875 0 -1.46875 0.640625q-0.59375 0.625 -0.734375 1.78125l4.234375 0l0 -0.109375q-0.0625 -1.109375 -0.59375 -1.703125q-0.53125 -0.609375 -1.4375 -0.609375zm9.2421875 0.265625q-0.328125 -0.0625 -0.71875 -0.0625q-1.421875 0 -1.921875 1.21875l0 6.0l-1.453125 0l0 -8.453125l1.40625 0l0.03125 0.96875q0.703125 -1.125 2.015625 -1.125q0.421875 0 0.640625 0.109375l0 1.34375zm2.8984375 7.15625l-1.453125 0l0 -8.453125l1.453125 0l0 8.453125zm-1.5625 -10.703125q0 -0.34375 0.203125 -0.578125q0.21875 -0.25 0.640625 -0.25q0.421875 0 0.640625 0.25q0.21875 0.234375 0.21875 0.59375q0 0.34375 -0.21875 0.578125q-0.21875 0.234375 -0.640625 0.234375q-0.421875 0 -0.640625 -0.234375q-0.203125 -0.234375 -0.203125 -0.59375zm4.3515625 10.703125l0 -7.34375l-1.328125 0l0 -1.109375l1.328125 0l0 -0.71875q0 -1.421875 0.8125 -2.203125q0.8125 -0.796875 2.28125 -0.796875q0.875 0 2.21875 0.484375l-0.25 1.21875q-0.96875 -0.390625 -1.859375 -0.390625q-0.921875 0 -1.34375 0.421875q-0.40625 0.40625 -0.40625 1.25l0 0.734375l1.734375 0l0 1.109375l-1.734375 0l0 7.34375l-1.453125 0zm6.03125 0l-1.453125 0l0 -8.453125l1.453125 0l0 8.453125zm7.5625 0q-0.125 -0.25 -0.203125 -0.890625q-1.0 1.046875 -2.40625 1.046875q-1.25 0 -2.046875 -0.703125q-0.796875 -0.71875 -0.796875 -1.796875q0 -1.328125 1.0 -2.046875q1.0 -0.734375 2.828125 -0.734375l1.40625 0l0 -0.671875q0 -0.75 -0.453125 -1.203125q-0.453125 -0.453125 -1.34375 -0.453125q-0.765625 0 -1.296875 0.390625q-0.515625 0.390625 -0.515625 0.953125l-1.453125 0q0 -0.640625 0.4375 -1.21875q0.453125 -0.59375 1.21875 -0.9375q0.78125 -0.34375 1.703125 -0.34375q1.453125 0 2.28125 0.734375q0.828125 0.71875 0.859375 2.0l0 3.890625q0 1.171875 0.296875 1.859375l0 0.125l-1.515625 0zm-2.390625 -1.109375q0.671875 0 1.28125 -0.34375q0.609375 -0.359375 0.890625 -0.921875l0 -1.734375l-1.140625 0q-2.65625 0 -2.65625 1.5625q0 0.671875 0.453125 1.0625q0.453125 0.375 1.171875 0.375zm13.03125 -3.03125q0 1.9375 -0.890625 3.125q-0.890625 1.171875 -2.390625 1.171875q-1.59375 0 -2.46875 -1.140625l-0.078125 0.984375l-1.328125 0l0 -12.0l1.453125 0l0 4.46875q0.875 -1.078125 2.40625 -1.078125q1.546875 0 2.421875 1.171875q0.875 1.15625 0.875 3.171875l0 0.125zm-1.4375 -0.15625q0 -1.484375 -0.578125 -2.28125q-0.5625 -0.8125 -1.640625 -0.8125q-1.421875 0 -2.046875 1.328125l0 3.65625q0.65625 1.328125 2.0625 1.328125q1.046875 0 1.625 -0.796875q0.578125 -0.8125 0.578125 -2.421875zm4.8359375 4.296875l-1.453125 0l0 -12.0l1.453125 0l0 12.0zm5.820282 0.15625q-1.71875 0 -2.796875 -1.125q-1.078125 -1.140625 -1.078125 -3.03125l0 -0.265625q0 -1.25 0.46875 -2.234375q0.484375 -1.0 1.34375 -1.546875q0.875 -0.5625 1.875 -0.5625q1.65625 0 2.5625 1.09375q0.921875 1.078125 0.921875 3.09375l0 0.609375l-5.734375 0q0.03125 1.25 0.734375 2.015625q0.703125 0.765625 1.78125 0.765625q0.765625 0 1.296875 -0.3125q0.53125 -0.3125 0.921875 -0.828125l0.890625 0.6875q-1.0625 1.640625 -3.1875 1.640625zm-0.1875 -7.578125q-0.875 0 -1.46875 0.640625q-0.59375 0.625 -0.734375 1.78125l4.234375 0l0 -0.109375q-0.0625 -1.109375 -0.59375 -1.703125q-0.53125 -0.609375 -1.4375 -0.609375z" fill-rule="nonzero"/><path fill="#000000" d="m458.04324 420.98856q0 1.671875 -0.5625 2.921875q-0.5625 1.25 -1.59375 1.90625q-1.03125 0.65625 -2.40625 0.65625q-1.34375 0 -2.390625 -0.65625q-1.03125 -0.671875 -1.609375 -1.890625q-0.578125 -1.21875 -0.59375 -2.828125l0 -0.828125q0 -1.640625 0.5625 -2.890625q0.578125 -1.265625 1.625 -1.921875q1.046875 -0.671875 2.390625 -0.671875q1.359375 0 2.40625 0.65625q1.046875 0.65625 1.609375 1.921875q0.5625 1.25 0.5625 2.90625l0 0.71875zm-1.5 -0.734375q0 -2.015625 -0.8125 -3.09375q-0.8125 -1.09375 -2.265625 -1.09375q-1.421875 0 -2.25 1.09375q-0.8125 1.078125 -0.828125 3.0l0 0.828125q0 1.96875 0.8125 3.09375q0.828125 1.109375 2.28125 1.109375q1.453125 0 2.25 -1.046875q0.796875 -1.0625 0.8125 -3.046875l0 -0.84375zm11.0 4.0625l1.625 -6.453125l1.453125 0l-2.46875 8.453125l-1.171875 0l-2.046875 -6.40625l-2.0 6.40625l-1.171875 0l-2.453125 -8.453125l1.4375 0l1.65625 6.328125l1.96875 -6.328125l1.171875 0l2.0 6.453125zm5.9140625 -6.453125l0.046875 1.0625q0.96875 -1.21875 2.53125 -1.21875q2.671875 0 2.703125 3.015625l0 5.59375l-1.453125 0l0 -5.59375q0 -0.921875 -0.421875 -1.359375q-0.40625 -0.4375 -1.265625 -0.4375q-0.703125 0 -1.234375 0.375q-0.53125 0.375 -0.828125 0.984375l0 6.03125l-1.453125 0l0 -8.453125l1.375 0zm10.96875 8.609375q-1.71875 0 -2.796875 -1.125q-1.078125 -1.140625 -1.078125 -3.03125l0 -0.265625q0 -1.25 0.46875 -2.234375q0.484375 -1.0 1.34375 -1.546875q0.875 -0.5625 1.875 -0.5625q1.65625 0 2.5625 1.09375q0.921875 1.078125 0.921875 3.09375l0 0.609375l-5.734375 0q0.03125 1.25 0.734375 2.015625q0.703125 0.765625 1.78125 0.765625q0.765625 0 1.296875 -0.3125q0.53125 -0.3125 0.921875 -0.828125l0.890625 0.6875q-1.0625 1.640625 -3.1875 1.640625zm-0.1875 -7.578125q-0.875 0 -1.46875 0.640625q-0.59375 0.625 -0.734375 1.78125l4.234375 0l0 -0.109375q-0.0625 -1.109375 -0.59375 -1.703125q-0.53125 -0.609375 -1.4375 -0.609375zm9.2421875 0.265625q-0.328125 -0.0625 -0.71875 -0.0625q-1.421875 0 -1.921875 1.21875l0 6.0l-1.453125 0l0 -8.453125l1.40625 0l0.03125 0.96875q0.703125 -1.125 2.015625 -1.125q0.421875 0 0.640625 0.109375l0 1.34375zm6.2421875 4.90625q0 -0.578125 -0.4375 -0.90625q-0.4375 -0.328125 -1.546875 -0.5625q-1.09375 -0.234375 -1.734375 -0.5625q-0.640625 -0.328125 -0.953125 -0.78125q-0.3125 -0.453125 -0.3125 -1.078125q0 -1.03125 0.875 -1.75q0.890625 -0.71875 2.25 -0.71875q1.4375 0 2.328125 0.75q0.90625 0.734375 0.90625 1.890625l-1.453125 0q0 -0.59375 -0.515625 -1.015625q-0.5 -0.4375 -1.265625 -0.4375q-0.78125 0 -1.234375 0.34375q-0.4375 0.34375 -0.4375 0.890625q0 0.53125 0.40625 0.796875q0.421875 0.265625 1.5 0.515625q1.078125 0.234375 1.75 0.578125q0.671875 0.328125 1.0 0.796875q0.328125 0.46875 0.328125 1.15625q0 1.125 -0.90625 1.8125q-0.90625 0.6875 -2.359375 0.6875q-1.015625 0 -1.796875 -0.359375q-0.78125 -0.359375 -1.21875 -1.0q-0.4375 -0.65625 -0.4375 -1.40625l1.4375 0q0.046875 0.734375 0.578125 1.15625q0.546875 0.421875 1.4375 0.421875q0.828125 0 1.3125 -0.328125q0.5 -0.328125 0.5 -0.890625zm4.78125 -5.1875q0.953125 -1.171875 2.5 -1.171875q2.671875 0 2.703125 3.015625l0 5.59375l-1.453125 0l0 -5.59375q0 -0.921875 -0.421875 -1.359375q-0.40625 -0.4375 -1.265625 -0.4375q-0.703125 0 -1.234375 0.375q-0.53125 0.375 -0.828125 0.984375l0 6.03125l-1.453125 0l0 -12.0l1.453125 0l0 4.5625zm8.9374695 7.4375l-1.4530945 0l0 -8.453125l1.4530945 0l0 8.453125zm-1.5624695 -10.703125q0 -0.34375 0.20309448 -0.578125q0.21875 -0.25 0.640625 -0.25q0.421875 0 0.640625 0.25q0.21875 0.234375 0.21875 0.59375q0 0.34375 -0.21875 0.578125q-0.21875 0.234375 -0.640625 0.234375q-0.421875 0 -0.640625 -0.234375q-0.20309448 -0.234375 -0.20309448 -0.59375zm11.007782 6.5625q0 1.9375 -0.890625 3.125q-0.875 1.171875 -2.375 1.171875q-1.546875 0 -2.421875 -0.984375l0 4.078125l-1.453125 0l0 -11.703125l1.328125 0l0.0625 0.9375q0.890625 -1.09375 2.453125 -1.09375q1.53125 0 2.40625 1.15625q0.890625 1.140625 0.890625 3.1875l0 0.125zm-1.4375 -0.15625q0 -1.4375 -0.609375 -2.265625q-0.609375 -0.828125 -1.671875 -0.828125q-1.3125 0 -1.96875 1.171875l0 4.03125q0.640625 1.15625 1.984375 1.15625q1.03125 0 1.640625 -0.8125q0.625 -0.828125 0.625 -2.453125zm3.2265625 6.5625l-0.8125 -0.5625q0.734375 -1.015625 0.765625 -2.109375l0 -1.3125l1.40625 0l0 1.140625q0 0.796875 -0.390625 1.578125q-0.375 0.796875 -0.96875 1.265625z" fill-rule="nonzero"/><path fill="#000000" d="m467.3245 442.34796l-4.765625 0l-1.078125 2.96875l-1.546875 0l4.34375 -11.375l1.3125 0l4.359375 11.375l-1.546875 0l-1.078125 -2.96875zm-4.3125 -1.234375l3.859375 0l-1.9375 -5.328125l-1.921875 5.328125zm11.625 3.171875q0.78125 0 1.359375 -0.46875q0.578125 -0.46875 0.640625 -1.171875l1.359375 0q-0.03125 0.734375 -0.5 1.390625q-0.453125 0.65625 -1.234375 1.046875q-0.765625 0.390625 -1.625 0.390625q-1.71875 0 -2.75 -1.15625q-1.015625 -1.15625 -1.015625 -3.15625l0 -0.234375q0 -1.234375 0.453125 -2.1875q0.453125 -0.96875 1.296875 -1.5q0.859375 -0.53125 2.015625 -0.53125q1.421875 0 2.359375 0.859375q0.9375 0.84375 1.0 2.203125l-1.359375 0q-0.0625 -0.828125 -0.625 -1.34375q-0.5625 -0.53125 -1.375 -0.53125q-1.109375 0 -1.71875 0.796875q-0.59375 0.78125 -0.59375 2.28125l0 0.28125q0 1.453125 0.59375 2.25q0.609375 0.78125 1.71875 0.78125zm8.375 0q0.78125 0 1.359375 -0.46875q0.578125 -0.46875 0.640625 -1.171875l1.359375 0q-0.03125 0.734375 -0.5 1.390625q-0.453125 0.65625 -1.234375 1.046875q-0.765625 0.390625 -1.625 0.390625q-1.71875 0 -2.75 -1.15625q-1.015625 -1.15625 -1.015625 -3.15625l0 -0.234375q0 -1.234375 0.453125 -2.1875q0.453125 -0.96875 1.296875 -1.5q0.859375 -0.53125 2.015625 -0.53125q1.421875 0 2.359375 0.859375q0.9375 0.84375 1.0 2.203125l-1.359375 0q-0.0625 -0.828125 -0.625 -1.34375q-0.5625 -0.53125 -1.375 -0.53125q-1.109375 0 -1.71875 0.796875q-0.59375 0.78125 -0.59375 2.28125l0 0.28125q0 1.453125 0.59375 2.25q0.609375 0.78125 1.71875 0.78125zm8.5 1.1875q-1.71875 0 -2.796875 -1.125q-1.078125 -1.140625 -1.078125 -3.03125l0 -0.265625q0 -1.25 0.46875 -2.234375q0.484375 -1.0 1.34375 -1.546875q0.875 -0.5625 1.875 -0.5625q1.65625 0 2.5625 1.09375q0.921875 1.078125 0.921875 3.09375l0 0.609375l-5.734375 0q0.03125 1.25 0.734375 2.015625q0.703125 0.765625 1.78125 0.765625q0.765625 0 1.296875 -0.3125q0.53125 -0.3125 0.921875 -0.828125l0.890625 0.6875q-1.0625 1.640625 -3.1875 1.640625zm-0.1875 -7.578125q-0.875 0 -1.46875 0.640625q-0.59375 0.625 -0.734375 1.78125l4.234375 0l0 -0.109375q-0.0625 -1.109375 -0.59375 -1.703125q-0.53125 -0.609375 -1.4375 -0.609375zm10.0703125 5.171875q0 -0.578125 -0.4375 -0.90625q-0.4375 -0.328125 -1.546875 -0.5625q-1.09375 -0.234375 -1.734375 -0.5625q-0.640625 -0.328125 -0.953125 -0.78125q-0.3125 -0.453125 -0.3125 -1.078125q0 -1.03125 0.875 -1.75q0.890625 -0.71875 2.25 -0.71875q1.4375 0 2.328125 0.75q0.90625 0.734375 0.90625 1.890625l-1.453125 0q0 -0.59375 -0.515625 -1.015625q-0.5 -0.4375 -1.265625 -0.4375q-0.78125 0 -1.234375 0.34375q-0.4375 0.34375 -0.4375 0.890625q0 0.53125 0.40625 0.796875q0.421875 0.265625 1.5 0.515625q1.078125 0.234375 1.75 0.578125q0.671875 0.328125 1.0 0.796875q0.328125 0.46875 0.328125 1.15625q0 1.125 -0.90625 1.8125q-0.90625 0.6875 -2.359375 0.6875q-1.015625 0 -1.796875 -0.359375q-0.78125 -0.359375 -1.21875 -1.0q-0.4375 -0.65625 -0.4375 -1.40625l1.4375 0q0.046875 0.734375 0.578125 1.15625q0.546875 0.421875 1.4375 0.421875q0.828125 0 1.3125 -0.328125q0.5 -0.328125 0.5 -0.890625zm8.25 0q0 -0.578125 -0.4375 -0.90625q-0.4375 -0.328125 -1.546875 -0.5625q-1.09375 -0.234375 -1.734375 -0.5625q-0.640625 -0.328125 -0.953125 -0.78125q-0.3125 -0.453125 -0.3125 -1.078125q0 -1.03125 0.875 -1.75q0.890625 -0.71875 2.25 -0.71875q1.4375 0 2.328125 0.75q0.90625 0.734375 0.90625 1.890625l-1.453125 0q0 -0.59375 -0.515625 -1.015625q-0.5 -0.4375 -1.265625 -0.4375q-0.78125 0 -1.234375 0.34375q-0.4375 0.34375 -0.4375 0.890625q0 0.53125 0.40625 0.796875q0.421875 0.265625 1.5 0.515625q1.078125 0.234375 1.75 0.578125q0.671875 0.328125 1.0 0.796875q0.328125 0.46875 0.328125 1.15625q0 1.125 -0.90625 1.8125q-0.90625 0.6875 -2.359375 0.6875q-1.015625 0 -1.796875 -0.359375q-0.78125 -0.359375 -1.21875 -1.0q-0.4375 -0.65625 -0.4375 -1.40625l1.4375 0q0.046875 0.734375 0.578125 1.15625q0.546875 0.421875 1.4375 0.421875q0.828125 0 1.3125 -0.328125q0.5 -0.328125 0.5 -0.890625zm3.2812195 4.515625l-0.8125 -0.5625q0.734375 -1.015625 0.765625 -2.109375l0 -1.3125l1.40625 0l0 1.140625q0 0.796875 -0.390625 1.578125q-0.375 0.796875 -0.96875 1.265625z" fill-rule="nonzero"/><path fill="#000000" d="m474.78152 464.3167l0 -11.375l3.203125 0q1.484375 0 2.625 0.65625q1.140625 0.65625 1.765625 1.875q0.625 1.203125 0.625 2.765625l0 0.734375q0 1.609375 -0.625 2.828125q-0.609375 1.203125 -1.765625 1.859375q-1.15625 0.640625 -2.6875 0.65625l-3.140625 0zm1.5 -10.140625l0 8.90625l1.578125 0q1.734375 0 2.6875 -1.078125q0.96875 -1.078125 0.96875 -3.0625l0 -0.671875q0 -1.9375 -0.90625 -3.0q-0.90625 -1.078125 -2.578125 -1.09375l-1.75 0zm12.2734375 10.296875q-1.71875 0 -2.796875 -1.125q-1.078125 -1.140625 -1.078125 -3.03125l0 -0.265625q0 -1.25 0.46875 -2.234375q0.484375 -1.0 1.34375 -1.546875q0.875 -0.5625 1.875 -0.5625q1.65625 0 2.5625 1.09375q0.921875 1.078125 0.921875 3.09375l0 0.609375l-5.734375 0q0.03125 1.25 0.734375 2.015625q0.703125 0.765625 1.78125 0.765625q0.765625 0 1.296875 -0.3125q0.53125 -0.3125 0.921875 -0.828125l0.890625 0.6875q-1.0625 1.640625 -3.1875 1.640625zm-0.1875 -7.578125q-0.875 0 -1.46875 0.640625q-0.59375 0.625 -0.734375 1.78125l4.234375 0l0 -0.109375q-0.0625 -1.109375 -0.59375 -1.703125q-0.53125 -0.609375 -1.4375 -0.609375zm5.6328125 7.421875l0 -7.34375l-1.328125 0l0 -1.109375l1.328125 0l0 -0.71875q0 -1.421875 0.8125 -2.203125q0.8125 -0.796875 2.28125 -0.796875q0.875 0 2.21875 0.484375l-0.25 1.21875q-0.96875 -0.390625 -1.859375 -0.390625q-0.921875 0 -1.34375 0.421875q-0.40625 0.40625 -0.40625 1.25l0 0.734375l1.734375 0l0 1.109375l-1.734375 0l0 7.34375l-1.453125 0zm6.03125 0l-1.453125 0l0 -8.453125l1.453125 0l0 8.453125z" fill-rule="nonzero"/><path fill="#ffffff" d="m315.3727 191.57742l0 -21.496063c0 -11.384888 9.229279 -20.614166 20.614166 -20.614166l14.724396 0l0 -5.8897705l11.779541 11.779526l-11.779541 11.779541l0 -5.8897705l-14.724396 0l0 0c-4.879242 0 -8.834656 3.9553986 -8.834656 8.8346405l0 21.496063z" fill-rule="evenodd"/><path stroke="#303030" stroke-width="1.0" stroke-linejoin="round" stroke-linecap="butt" d="m315.3727 191.57742l0 -21.496063c0 -11.384888 9.229279 -20.614166 20.614166 -20.614166l14.724396 0l0 -5.8897705l11.779541 11.779526l-11.779541 11.779541l0 -5.8897705l-14.724396 0l0 0c-4.879242 0 -8.834656 3.9553986 -8.834656 8.8346405l0 21.496063z" fill-rule="evenodd"/><path fill="#ffffff" d="m602.51184 144.01837l21.496033 0c11.384888 0 20.614197 9.229279 20.614197 20.614182l0 14.724396l5.8897705 0l-11.779541 11.779541l-11.779541 -11.779541l5.8897705 0l0 -14.724396l0 0c0 -4.879242 -3.9554443 -8.834656 -8.834656 -8.834656l-21.496033 0z" fill-rule="evenodd"/><path stroke="#303030" stroke-width="1.0" stroke-linejoin="round" stroke-linecap="butt" d="m602.51184 144.01837l21.496033 0c11.384888 0 20.614197 9.229279 20.614197 20.614182l0 14.724396l5.8897705 0l-11.779541 11.779541l-11.779541 -11.779541l5.8897705 0l0 -14.724396l0 0c0 -4.879242 -3.9554443 -8.834656 -8.834656 -8.834656l-21.496033 0z" fill-rule="evenodd"/><path fill="#ffffff" d="m650.51184 391.57742l0 21.496063c0 11.384888 -9.229309 20.614166 -20.614197 20.614166l-14.724426 0l0 5.8897705l-11.779541 -11.7795105l11.779541 -11.779541l0 5.8897705l14.724426 0l0 0c4.8792114 0 8.834656 -3.9554138 8.834656 -8.834656l0 -21.496063z" fill-rule="evenodd"/><path stroke="#303030" stroke-width="1.0" stroke-linejoin="round" stroke-linecap="butt" d="m650.51184 391.57742l0 21.496063c0 11.384888 -9.229309 20.614166 -20.614197 20.614166l-14.724426 0l0 5.8897705l-11.779541 -11.7795105l11.779541 -11.779541l0 5.8897705l14.724426 0l0 0c4.8792114 0 8.834656 -3.9554138 8.834656 -8.834656l0 -21.496063z" fill-rule="evenodd"/><path fill="#ffffff" d="m363.3727 439.13647l-21.496063 0c-11.384888 0 -20.614166 -9.229279 -20.614166 -20.614166l0 -14.724396l-5.8897705 0l11.7795105 -11.779541l11.779541 11.779541l-5.8897705 0l0 14.724396l0 0c0 4.879242 3.9554138 8.834656 8.834656 8.834656l21.496063 0z" fill-rule="evenodd"/><path stroke="#303030" stroke-width="1.0" stroke-linejoin="round" stroke-linecap="butt" d="m363.3727 439.13647l-21.496063 0c-11.384888 0 -20.614166 -9.229279 -20.614166 -20.614166l0 -14.724396l-5.8897705 0l11.7795105 -11.779541l11.779541 11.779541l-5.8897705 0l0 14.724396l0 0c0 4.879242 3.9554138 8.834656 8.834656 8.834656l21.496063 0z" fill-rule="evenodd"/></g></svg>